<svg id="Capa_1" data-name="Capa 1" xmlns="http://www.w3.org/2000/svg" viewBox="0 0 792 612"><defs><style>.cls-1{fill:#7f7f7d;}.cls-2,.cls-4,.cls-5{fill:#94958c;}.cls-3{fill:#93948b;}.cls-4{font-size:146.94px;}.cls-4,.cls-5{font-family:Laisha-Regular, Laisha;}.cls-5{font-size:129.01px;}.cls-6{letter-spacing:-0.05em;}</style></defs><title>shamp</title><path class="cls-1" d="M212.92,249.41a79.57,79.57,0,0,0,9.23-10.74c2.83-3.79,5.48-7.7,8-11.68,5.11-8,9.85-16.16,14.32-24.5s8.8-16.76,13-25.25,8.19-17.1,12.15-25.7c7.91-17.23,15.44-34.64,22.73-52.14s14.38-35.09,21.11-52.83l.18.07q-9.7,26.74-20.37,53.14c-7.11,17.59-14.46,35.08-22.19,52.42q-5.77,13-11.82,25.9c-2.07,4.27-4.14,8.55-6.3,12.78s-4.41,8.41-6.71,12.57c-4.67,8.28-9.52,16.47-14.9,24.31-2.71,3.91-5.5,7.76-8.48,11.47-1.51,1.85-3.06,3.65-4.67,5.4a46.34,46.34,0,0,1-5.16,4.94Z"/><path class="cls-2" d="M226.83,143s-2.45,18.62,2.44,30,17.51,23.89,17.51,23.89,5.29-8.5,1.62-23.48S226.83,143,226.83,143Z"/><path class="cls-2" d="M260,175s-1.63,6.48-16.69-17.82-12.63-52.64-12.63-52.64,2.45,7.69,15.48,21S261.23,161.61,260,175Z"/><path class="cls-2" d="M268.56,158.37s-11.81-4.86-15.47-38.47,13.84-64,13.84-64,11,27.13,9.77,49S268.56,158.37,268.56,158.37Z"/><path class="cls-2" d="M281.79,124s-14.66-28.75,8.14-51.42,23.62-28.35,23.62-28.35,6.51,38.06-3.26,55.07S292,123.55,281.79,124Z"/><path class="cls-2" d="M268,156.55s8.55-17,30.94-31.58,59-31.59,59-31.59a109.59,109.59,0,0,1-19.54,34.83c-13.85,16.19-34.21,33.2-52.53,32S268,156.55,268,156.55Z"/><path class="cls-2" d="M258.31,177.91s15-13.23,32.91-14.88,39.89-5,39.89-5-13,16.2-26.26,21.82-27.93,6.28-37.57,2.65S258.31,177.91,258.31,177.91Z"/><path class="cls-2" d="M247.56,197.12s8.29-6.44,22.87-8.43,36.81-1.84,36.81-1.84a60.68,60.68,0,0,1-18,12.72c-10.72,4.8-24.87,8.47-33.68,3.57S247.56,197.12,247.56,197.12Z"/><path class="cls-3" d="M188.52,43.83c.76,8.6,1.1,17.19,1.35,25.79l.15,6.45.07,6.44q.07,6.45-.11,12.9c-.25,8.59-.9,17.19-1,25.79s.09,17.19.44,25.78c.17,4.3.39,8.6.51,12.9s.21,8.59.28,12.89c.14,8.6.3,17.19.25,25.79s-.24,17.19-.56,25.79-.72,17.19-1.37,25.79h-.4c-.65-8.6-1.08-17.2-1.38-25.79s-.46-17.19-.56-25.79.12-17.19.26-25.79c.06-4.3.13-8.59.27-12.89s.34-8.6.51-12.9c.35-8.59.6-17.19.45-25.78s-.77-17.2-1-25.79q-.18-6.45-.1-12.9l.07-6.44.15-6.45c.25-8.6.58-17.19,1.35-25.79Z"/><path class="cls-3" d="M180.41,43.65c.76,8.6,1.1,17.21,1.35,25.81l.15,6.45.07,6.45q.08,6.47-.11,12.91c-.25,8.6-.9,17.21-1,25.81s.09,17.21.44,25.81c.17,4.3.39,8.61.51,12.91s.21,8.6.28,12.9c.14,8.61.3,17.21.25,25.81s-.24,17.21-.56,25.81-.72,17.21-1.37,25.82H180c-.65-8.61-1.08-17.21-1.38-25.82s-.46-17.2-.56-25.81.12-17.2.26-25.81c.06-4.3.13-8.6.27-12.9s.34-8.61.51-12.91c.35-8.6.6-17.21.45-25.81s-.77-17.21-1-25.81q-.18-6.45-.1-12.91l.07-6.45.15-6.45c.25-8.6.58-17.21,1.35-25.81Z"/><text/><text class="cls-4" transform="translate(70.16 197.11)">D</text><path class="cls-2" d="M94.55,135.69V98.4a27.75,27.75,0,0,1-5-3,6.07,6.07,0,0,1-1.15-1.17H70.16a21.27,21.27,0,0,1,6.17,14.25v74.36a21.27,21.27,0,0,1-6.17,14.25H95.94l.82-.35a9.29,9.29,0,0,1,1.51-.39h0a14.06,14.06,0,0,1,3.72-2.57c-2.42,0-4.9-.06-7.45-.06V139.51h25v-3.82Z"/><text class="cls-5" transform="translate(375.14 193.7)"><tspan class="cls-6">E</tspan><tspan x="57.93" y="0">djo</tspan></text></svg>